<svg xmlns="http://www.w3.org/2000/svg" width="27.182" height="32.354" viewBox="0 0 27.182 32.354"><defs><style>.a{fill:#fff;}.b{fill:#e5a627;}.c{fill:#ce2d22;}.d{fill:#070001;}</style></defs><path class="a" d="M114.37,26.291a24.271,24.271,0,0,0-2.014-6.532l-1.367-3.52a16.752,16.752,0,0,0-1.884-9.049,9.353,9.353,0,0,0-7.691-4.642c-.841-.036-6.122-.079-8.718,4.508a15.709,15.709,0,0,0-1.9,9.188l-1.445,3.55s-.676,1.619-1.258,3.584-1.164,5.069-.591,5.694c.59.633,2.7-2.882,2.895-3.2a10.426,10.426,0,0,0,.547,2.552A11.153,11.153,0,0,0,93.6,32.249c-.747.243-2.543.894-2.8,1.558-.33.855.256.95,1.272,1.007a61.884,61.884,0,0,0,8.18-.134.426.426,0,0,1,.074-.013c.23.009.447.013.638.013.13,0,.277,0,.447-.009.021,0,.03.009.051.009a58.937,58.937,0,0,0,8.181.134c1.007-.056,1.6-.157,1.272-1.007-.265-.682-2.113-1.337-2.838-1.567a6.64,6.64,0,0,0,.66-.656c2.617-2.881,2.4-4.691,2.508-5.737,0,0,2.2,3.181,2.677,3.285.5.1.647-.4.456-2.843Z" transform="translate(-87.27 -2.542)"/><path class="b" d="M198.539,925.3a7.258,7.258,0,0,1-1.324-.942c-.747.248-2.543.894-2.8,1.558-.33.855.256.95,1.272,1.007a61.873,61.873,0,0,0,8.18-.134.423.423,0,0,1,.074-.013,11.4,11.4,0,0,1-5.4-1.476Zm13.141-.942a10.494,10.494,0,0,1-6.661,2.435c.021,0,.03.009.052.009a58.947,58.947,0,0,0,8.18.134c1.007-.056,1.6-.156,1.272-1.006C214.253,925.241,212.4,924.59,211.679,924.359Z" transform="translate(-190.872 -894.674)"/><path class="c" d="M175.153,431.018l-1.367-3.524a39.128,39.128,0,0,1-20.18,0l-1.445,3.55a31.984,31.984,0,0,0,5.169,1.207v4.773a20.7,20.7,0,0,0,4.436.108v-4.418a36.326,36.326,0,0,0,13.388-1.7Z" transform="translate(-150.07 -413.809)"/><path class="d" d="M212.9,7.232A9.34,9.34,0,0,0,205.223,2.6c-.842-.043-6.124-.087-8.719,4.5a15.675,15.675,0,0,0-1.9,9.188,38.37,38.37,0,0,0,20.18,0A16.753,16.753,0,0,0,212.9,7.232ZM202.02,11.793c-.985,0-1.775-1.141-1.775-2.551s.8-2.552,1.775-2.552S203.8,7.831,203.8,9.241s-.79,2.552-1.775,2.552Zm5.3,0c-.985,0-1.775-1.141-1.775-2.551s.8-2.552,1.775-2.552,1.775,1.142,1.775,2.552-.8,2.552-1.775,2.552Z" transform="translate(-191.069 -2.587)"/><path class="d" d="M419.8,184.992c0,.559.347,1.02.768,1.02s.769-.452.769-1.02-.348-1.02-.769-1.02A.929.929,0,0,0,419.8,184.992Zm5.542-.638c.512,0,1.216.265,1.064.682-.122.33-.725-.109-.942-.144a1.007,1.007,0,0,0-1.007.339c-.221.265-.568.235-.447-.13A1.355,1.355,0,0,1,425.347,184.354Z" transform="translate(-409.096 -178.13)"/><path class="b" d="M318.724,314.7c0,.429,3.2,2.035,6.137,2.013s6.2-1.61,6.2-2.074-2.352-1.28-6.263-1.28-6.076.707-6.076,1.341Z" transform="translate(-311.27 -303.351)"/><path class="d" d="M114.5,543.716a24.271,24.271,0,0,0-2.014-6.532,35.567,35.567,0,0,1-3.758,1.007,19.856,19.856,0,0,1,.2,4.019c-.087,3.4-1.194,6.167-3.919,7.768s-7.512,1.25-9.6-1.367c-1.971-2.456-2.608-4.292-2.135-10.437a30.471,30.471,0,0,1-3.781-.964s-.677,1.619-1.259,3.585-1.163,5.068-.59,5.694c.59.634,2.7-2.882,2.9-3.2a10.421,10.421,0,0,0,.547,2.552,9.842,9.842,0,0,0,3.975,4.765A11.836,11.836,0,0,0,101.1,552.1a10.422,10.422,0,0,0,7.768-3.1c2.612-2.882,2.4-4.692,2.508-5.737,0,0,2.2,3.181,2.677,3.285.491.113.638-.391.447-2.834Z" transform="translate(-87.403 -519.967)"/></svg>