<svg xmlns="http://www.w3.org/2000/svg" width="41.841" height="32.753" viewBox="0 0 41.841 32.753"><defs><style>.a{fill:#d72719;}.b{fill:#1e1a17;}.c{fill:#e5781a;}</style></defs><path class="a" d="M230.617,351.1c-1.69-.282-.845-1.126-.845-1.126s1.69-2.534-.282-4.5c-2.253-2.253-8.16.282-8.16.282-2.253.563-1.69-.282-1.408-1.971,0-1.971-.563-5.344-6.47-3.379s-10.687,8.723-10.687,8.723c-3.654,4.78-3.1,8.16-3.1,8.16.845,7.878,9.286,10.131,16.038,10.413,7.033.563,16.319-2.253,19.128-8.16,2.534-5.907-2.528-8.16-4.217-8.441Zm-14.63,14.63c-6.752.282-12.377-3.1-12.377-7.6s5.625-8.16,12.377-8.441,12.377,2.534,12.377,7.033S223.021,365.453,215.988,365.734Zm0,0" transform="translate(-199.638 -335.023)"/><path class="b" d="M332.292,528.052c7.033-.845,8.16,5.625,5.907,8.441-1.971,2.816-6.188,3.936-10.412,1.69a3.805,3.805,0,0,1-1.971-3.1,6.888,6.888,0,0,1,6.477-7.033Zm-1.683,9c1.408-.282,2.253-1.126,2.253-2.253s-.845-1.971-2.534-1.69a2.667,2.667,0,0,0-1.971,2.253A1.706,1.706,0,0,0,330.61,537.049Zm4.217-3.372c.282-.281.563-.845.282-1.126a.929.929,0,0,0-1.408,0c-.282,0-.563.563-.282,1.126A1.257,1.257,0,0,0,334.827,533.677Zm0,0" transform="translate(-317.351 -510.562)"/><path class="c" d="M598.393,281.62a1.211,1.211,0,0,1-1.127-1.126s1.127-5.062-3.936-3.936a1.126,1.126,0,0,1,0-2.253s7.033-1.408,6.188,6.188A1.032,1.032,0,0,1,598.393,281.62Zm-.845-12.94c4.5,1.126,10.412,5.062,7.6,14.066-.282,1.408-.845,1.408-1.69,1.408a1.577,1.577,0,0,1-1.69-1.408,6.139,6.139,0,0,1,.282-1.69,7.524,7.524,0,0,0-.563-5.344,8.46,8.46,0,0,0-8.16-3.936,3.742,3.742,0,0,1-1.4.282,1.817,1.817,0,0,1-1.69-1.69,1.9,1.9,0,0,1,1.126-1.69h.282a13.492,13.492,0,0,1,5.907,0Zm0,0" transform="translate(-564.035 -268.355)"/></svg>