<svg xmlns="http://www.w3.org/2000/svg" width="38" height="30.956" viewBox="0 0 38 30.956"><defs><style>.a{fill:#19d100;}</style></defs><path class="a" d="M6.144,108.26a12.6,12.6,0,0,0-1.3.078c1.163-5.419,6.956-9.445,13.573-9.445,7.393,0,13.451,5.042,13.451,11.438,0,3.692-2.013,6.725-5.38,9.082l1.345,4.045-4.7-2.356a22.965,22.965,0,0,1-4.713.677c-.422,0-.839-.02-1.257-.054a9.933,9.933,0,0,0,.417-2.818c0-5.881-5.046-10.647-11.438-10.647Zm7.231-3.647a1.681,1.681,0,1,0,0,3.363,1.709,1.709,0,1,0,0-3.363Zm9.415,3.363a1.711,1.711,0,1,0,0-3.363,1.681,1.681,0,0,0,0,3.363Z" transform="translate(6.128 -98.893)"/><path class="a" d="M408.9,378.03c0-5.375,5.38-9.759,11.423-9.759,6.4,0,11.438,4.384,11.438,9.759s-5.041,9.759-11.438,9.759a16.819,16.819,0,0,1-4.035-.677l-3.687,2.023,1.011-3.363C410.907,383.749,408.9,381.059,408.9,378.03Zm15.129-1.684a1.345,1.345,0,1,0,0-2.691,1.379,1.379,0,1,0,0,2.691Zm-7.4,0a1.345,1.345,0,0,0,0-2.691,1.379,1.379,0,1,0,0,2.691Z" transform="translate(-408.899 -358.178)"/></svg>